<?xml version="1.0" ?><svg viewBox="0 0 64 64" xmlns="http://www.w3.org/2000/svg"><path d="M59.075 13.364c-4.285-9.78-12.738-9.722-19.63-8.854-6.89.868-9.61 6.424-9.61 6.424s-.812-.58-1.854-1.33-7.816-3.126-12.39-1.737C11.016 9.257 5.226 12.497 3.72 19.5c-1.505 7 0 12.5 4.516 17.07 4.516 4.573 12.043 8.392 17.834 12.096s7.353 9.896 7.353 9.896c.347.463 2.316.347 2.663-.174.347-.52 1.448-3.993 5.327-8.507 3.88-4.513 12.39-11.862 14.938-15.45 2.552-3.59 7.01-11.286 2.725-21.066zm-.752 12.905c-.058.173-4.4-4.515-4.632-4.688-.23-.174-.694.637-.694.81 0 .174 4.864 5.324 4.864 5.324s-1.158 2.257-1.563 2.373c-.405.115-4.11-5.036-4.343-5.267-.232-.232-.637.81-.637.81l4.458 5.382s-1.68 2.604-1.91 2.662c-.233.058-3.822-6.076-4.054-6.134-.23-.058-.752.463-.636.868.116.406 3.88 6.31 3.88 6.31s-1.45 1.793-1.622 1.793c-.174 0-3.3-6.076-3.474-6.308-.174-.23-.926.463-1.042.694-.116.23 3.358 6.25 3.59 6.596.232.347-1.332 1.563-1.737 1.736-.406.174-2.78-6.308-2.954-6.54-.174-.23-.926.522-1.042.927-.116.404 3.127 6.365 3.127 6.365l-1.968 2.257-2.837-6.944s-1.274.58-1.332.752c-.058.174 2.953 6.887 2.953 6.887s-1.737 2.025-2.142 2.257c-.405.23-3.127-7.002-3.127-7.002L38.405 39l3.242 7.234-2.084 2.315-3.358-6.888s-1.158.752-1.158.926c0 .174 3.358 6.886 3.416 7.118.058.23-1.216 1.39-1.505 1.563-.29.173-3.532-6.945-3.764-7.177-.232-.232-.695.58-.695.752 0 .174 3.53 7.697 3.53 7.697s-1.09 2.808-1.157 2.315c-.347-2.546-2.895-5.324-6.832-8.68-3.936-3.356-10.016-5.613-16.56-10.706C4.94 30.38 4.187 20.715 8.53 14.87c4.343-5.846 11-5.267 14.996-3.82s5.327 4.745 5.674 4.977c.347.232 2.316-.405 2.316-.405s0-.81.116-1.505c.116-.694 1.216-3.704 3.474-5.382 2.258-1.678 9.09-3.067 13.375-1.563 4.284 1.505 5.615 4.11 5.615 4.11s-1.68.693-1.91.75c-.233.06.288.985.288.985s1.91-.463 2.316-.405c.404.058.81 1.91.81 1.91l-2.895.23.116.58s.406 0 1.043.116c.637.116 2.837.81 2.837.81.58.636.926 3.588.926 3.588s-3.706-1.678-3.937-1.678c-.233 0-.348.868-.233 1.042.116.174 4.053 2.083 4.516 2.604s.408 4.28.35 4.455zm-42.79-10.59c-.404-.117-2.778-.06-5.036 3.876-2.258 3.935-.984 6.54-.984 6.54.868.693 1.97.115 1.97-.117s-.696-2.374.52-5.383c1.216-3.01 3.937-3.646 3.937-3.646s0-1.155-.406-1.27z"/></svg>